<?xml version="1.0" encoding="iso-8859-1"?>
<!-- Generator: Adobe Illustrator 19.0.0, SVG Export Plug-In . SVG Version: 6.00 Build 0)  -->
<svg version="1.1" id="Layer_1" xmlns="http://www.w3.org/2000/svg" xmlns:xlink="http://www.w3.org/1999/xlink" x="0px" y="0px"
	 viewBox="0 0 503.6 503.6" style="enable-background:new 0 0 503.6 503.6;" xml:space="preserve">
<polygon style="fill:#76E83A;" points="459.4,373.2 251.4,495.6 43.4,373.2 43.4,130 251.4,7.6 459.4,130 "/>
<polyline style="fill:#5CCC1B;" points="464.2,374 253.8,495.6 43.4,373.2 43.4,131.6 "/>
<polyline style="fill:#ACFF7B;" points="43.4,371.6 43.4,130 254.6,6.8 "/>
<path style="fill:#2F5068;" d="M251.4,503.6c-1.6,0-2.4,0-4-0.8L37.8,380.4c-2.4-1.6-2.4-4-2.4-7.2V130c0-3.2,0-5.6,2.4-7.2
	L248.2,1.2c2.4-1.6,4.8-1.6,8,0l209.6,121.6c2.4,1.6,2.4,4,2.4,7.2v244c0,3.2,0,5.6-2.4,7.2L254.6,502
	C253.8,502.8,253,503.6,251.4,503.6z M51.4,369.2l200,117.6l200-117.6V134l-200-116.8L51.4,134V369.2z"/>
<polygon style="fill:#B4D0D8;" points="251.4,251.6 41.8,372.4 251.4,15.6 251.4,249.2 "/>
<path style="fill:#D2EAC3;" d="M127.4,227.6c-1.6,8-2.4,16.8-2.4,25.6c0,22.4,5.6,44,16,62.4l110.4-64v-2.4V126
	c-32,0-60.8,12-83.2,31.2L127.4,227.6z"/>
<path style="fill:#EDFCE3;" d="M251.4,126c-32,0-60.8,12-83.2,31.2l-40.8,70.4c-1.6,8-2.4,16.8-2.4,25.6c0,22.4,5.6,44,16,62.4"/>
<path style="fill:#2F5068;" d="M41.8,380.4c-2.4,0-2.4-2.4-4-4c-2.4-2.4-2.4-8.8-0.8-12L244.2,11.6c1.6-3.2,5.6-4.8,8.8-4
	s5.6,4,5.6,8v236c0,3.2-1.6,5.6-4,7.2l-208.8,120C45,379.6,43.4,380.4,41.8,380.4z M243.4,45.2L64.2,350l179.2-103.2V45.2z"/>
<polygon style="fill:#A0B8C1;" points="251.4,251.6 461,372.4 251.4,15.6 251.4,249.2 "/>
<path style="fill:#ADDB91;" d="M251.4,251.6l110.4,64c10.4-18.4,16-39.2,16-62.4c0-8.8-0.8-17.6-2.4-25.6L334.6,158
	c-22.4-19.2-51.2-31.2-83.2-31.2v122.4V251.6z"/>
<path style="fill:#D2EAC3;" d="M361.8,315.6c10.4-18.4,16-39.2,16-62.4c0-8.8-0.8-17.6-2.4-25.6L334.6,158
	c-22.4-19.2-51.2-31.2-83.2-31.2"/>
<path style="fill:#2F5068;" d="M461,380.4c-1.6,0-2.4,0-4-0.8L247.4,258c-2.4-0.8-4-4-4-6.4v-236c0-4,2.4-6.4,5.6-8
	c3.2-0.8,7.2,0.8,8.8,4L465,364.4c1.6,3.2,1.6,11.2-1.6,13.6C462.6,379.6,462.6,380.4,461,380.4z M259.4,246.8L438.6,350L259.4,45.2
	V246.8z"/>
<polygon style="fill:#678389;" points="41.8,371.6 251.4,250.8 461,371.6 "/>
<path style="fill:#94C474;" d="M361.8,314.8l-110.4-64l-110.4,64c14.4,26.4,40.8,48.8,69.6,56.8h81.6
	C320.2,363.6,347.4,341.2,361.8,314.8z"/>
<path style="fill:#ADDB91;" d="M141,314.8c14.4,26.4,44,48.8,72.8,56.8h78.4c28.8-8,55.2-30.4,70.4-56.8"/>
<g>
	<path style="fill:#2F5068;" d="M461,379.6L461,379.6H41.8c-4,0-4-1.6-4.8-4.8c-0.8-3.2-2.4-7.2,0.8-9.6l209.6-120.8
		c2.4-1.6,5.6-1.6,8,0l208.8,120.8c3.2,0.8,0.8,4,0.8,7.2C465,376.4,465.8,379.6,461,379.6z M71.4,363.6h359.2l-179.2-104
		L71.4,363.6z"/>
	<path style="fill:#2F5068;" d="M251.4,380.4c-70.4,0-127.2-56.8-127.2-127.2S181,126,251.4,126s127.2,56.8,127.2,127.2
		S321.8,380.4,251.4,380.4z M251.4,142c-61.6,0-111.2,49.6-111.2,111.2s49.6,111.2,111.2,111.2s111.2-49.6,111.2-111.2
		S313,142,251.4,142z"/>
</g>
<g>
</g>
<g>
</g>
<g>
</g>
<g>
</g>
<g>
</g>
<g>
</g>
<g>
</g>
<g>
</g>
<g>
</g>
<g>
</g>
<g>
</g>
<g>
</g>
<g>
</g>
<g>
</g>
<g>
</g>
</svg>
